<svg xmlns="http://www.w3.org/2000/svg" width="94.819" height="95.937" viewBox="0 0 94.819 95.937">
  <g id="Group_1" data-name="Group 1" transform="translate(-0.559)">
    <path id="Path_1" data-name="Path 1" d="M95.329,59.861c-.031-7.134-.053-12.289-3.562-16.824-3.975-5.134-10.106-6-15.076-6.152a37.434,37.434,0,0,0,.692-11.863C77.277,10.7,66.624.414,51.839.006L51.626,0,29.012.018h-.243c-8.8,0-15.747,2.626-20.664,7.8A26.876,26.876,0,0,0,.592,25.666L.574,62.146c-.044.689.025,1.385.016,2.1,0,10.379,1.661,17.85,6.848,23.371s12.847,8.32,22.776,8.32c.215,0,.432,0,.649,0H65.492c8.858-.074,16.343-3,21.646-8.455s8.143-13.208,8.24-22.441c0,0-.043-3.717-.049-5.176Zm-64.483-40.4,19.322-.023a8.536,8.536,0,0,1,8.114,8.7,7.981,7.981,0,0,1-8.242,7.8l-19.455.008a8.246,8.246,0,0,1,.261-16.489ZM67.164,73.732H28.521a8.246,8.246,0,0,1,0-16.492H67.165a8.246,8.246,0,1,1,0,16.492Z" fill="#ffc400"/>
  </g>
</svg>
